<svg width="32" height="32" viewBox="0 0 32 32" fill="none" xmlns="http://www.w3.org/2000/svg">
<g id="call">
<path id="Shape" fill-rule="evenodd" clip-rule="evenodd" d="M6.4 13.8667C8.88889 18.8444 13.1556 22.9333 18.1333 25.6L22.0444 21.6889C22.5778 21.1556 23.2889 20.9778 23.8222 21.3333C25.7778 22.0444 27.9111 22.4 30.2222 22.4C31.2889 22.4 32 23.1111 32 24.1778V30.2222C32 31.2889 31.2889 32 30.2222 32C13.5111 32 0 18.4889 0 1.77778C0 0.711111 0.711111 0 1.77778 0H8C9.06667 0 9.77778 0.711111 9.77778 1.77778C9.77778 3.91111 10.1333 6.04444 10.8444 8.17778C11.0222 8.71111 10.8444 9.42222 10.4889 9.95556L6.4 13.8667Z" fill="#FFB800"/>
</g>
</svg>
